<?xml version="1.0" encoding="UTF-8" ?>
<!DOCTYPE svg PUBLIC "-//W3C//DTD SVG 1.1//EN" "http://www.w3.org/Graphics/SVG/1.1/DTD/svg11.dtd">
<svg width="442pt" height="137pt" viewBox="0 0 442 137" version="1.1" xmlns="http://www.w3.org/2000/svg">
<g id="#e5b627ff">
<path fill="#e5b627" opacity="1.00" d=" M 113.33 0.00 L 113.71 0.00 C 116.51 2.88 118.71 6.26 120.21 9.99 C 118.31 10.76 116.30 11.33 114.54 12.40 C 112.43 14.94 111.34 19.08 107.32 18.95 C 108.99 16.84 110.77 14.80 112.16 12.49 C 108.97 14.91 106.26 17.89 103.17 20.43 C 103.82 20.45 105.12 20.49 105.77 20.52 C 104.63 22.13 103.50 23.81 103.24 25.82 C 102.08 27.27 100.92 28.72 99.82 30.22 C 99.29 30.33 98.23 30.55 97.71 30.66 C 98.75 28.57 100.38 26.88 102.18 25.41 C 101.66 24.83 100.61 23.67 100.09 23.09 C 96.45 26.36 93.20 30.20 91.93 35.05 C 92.45 35.14 93.48 35.33 94.00 35.42 C 91.02 38.15 88.42 41.41 84.75 43.27 C 87.20 39.66 90.12 36.27 91.55 32.07 C 88.20 35.36 84.70 38.48 81.43 41.85 C 81.24 41.24 80.86 40.01 80.68 39.40 C 78.64 41.95 76.42 44.34 73.84 46.36 C 75.95 46.44 78.07 46.52 80.18 46.61 C 78.82 47.89 77.44 49.15 75.95 50.28 C 75.48 49.66 75.33 48.89 75.09 48.17 C 73.04 50.10 71.01 52.09 69.36 54.39 C 71.45 53.32 73.25 51.34 75.75 51.38 C 79.03 50.80 79.66 46.86 82.30 45.37 C 83.75 45.86 82.68 48.05 82.11 48.95 C 79.45 51.78 75.78 53.43 73.10 56.26 C 73.22 56.62 73.46 57.35 73.58 57.71 C 76.75 54.90 79.87 51.97 83.58 49.87 C 80.81 53.59 78.21 57.40 75.86 61.40 C 72.19 61.86 71.17 65.59 68.68 67.68 C 62.04 73.82 56.13 80.72 49.17 86.50 C 50.81 86.52 52.44 86.52 54.07 86.52 C 53.86 83.70 56.81 83.84 58.74 83.27 C 63.48 77.49 67.99 71.52 72.89 65.88 C 74.36 64.16 76.13 62.71 78.05 61.51 C 76.51 64.17 74.43 66.43 72.21 68.53 C 72.78 68.60 73.91 68.75 74.48 68.82 C 70.22 74.06 65.07 78.45 60.29 83.18 C 69.98 82.02 79.46 79.67 89.08 78.16 C 88.66 78.81 87.82 80.09 87.40 80.74 C 91.51 80.71 95.48 79.77 99.43 78.75 C 98.78 79.38 97.48 80.63 96.83 81.26 C 99.81 80.72 102.79 80.17 105.78 79.72 L 105.81 78.32 C 106.44 78.97 108.38 79.37 107.70 80.61 C 105.34 81.66 102.64 81.74 100.19 82.59 C 103.14 83.16 106.12 83.55 109.10 83.97 C 108.47 83.39 107.22 82.25 106.60 81.68 C 114.00 81.09 121.32 83.68 128.69 82.46 C 126.74 81.84 124.80 81.20 122.85 80.56 C 127.98 79.76 132.39 83.16 137.38 83.62 C 136.29 84.08 134.11 85.01 133.02 85.47 C 139.07 85.43 145.13 85.46 151.15 86.24 L 151.21 85.27 C 148.85 85.11 146.49 84.92 144.15 84.60 C 150.54 80.93 156.28 88.35 162.82 87.19 C 165.60 87.65 168.40 87.99 171.22 87.95 C 170.75 89.07 170.40 90.24 170.06 91.40 C 171.08 90.35 172.09 89.29 173.10 88.23 C 174.79 92.73 180.32 90.16 183.67 92.26 C 186.33 93.97 189.23 95.00 192.41 94.18 C 192.10 94.75 191.48 95.89 191.17 96.45 L 189.94 95.41 C 189.85 95.95 189.67 97.02 189.58 97.56 C 195.34 96.80 201.16 97.27 206.87 98.20 C 205.71 98.62 204.51 98.95 203.31 99.23 L 202.08 100.12 C 205.16 100.47 208.22 100.99 211.24 101.70 C 210.74 102.14 209.74 103.03 209.24 103.47 C 206.83 102.74 204.49 101.80 202.03 101.25 C 197.33 98.98 191.96 98.94 186.86 98.56 L 189.61 98.11 C 189.04 97.54 188.46 96.97 187.88 96.40 C 186.01 96.43 184.14 96.45 182.27 96.47 L 182.23 97.58 C 183.23 97.88 185.22 98.48 186.22 98.78 C 178.96 100.32 173.86 92.34 166.67 94.41 C 166.75 93.92 166.92 92.94 167.00 92.45 C 165.20 93.01 163.42 93.61 161.65 94.26 C 154.92 90.84 147.16 92.36 139.93 91.54 C 140.16 91.04 140.62 90.03 140.86 89.53 C 133.63 87.04 125.99 90.28 118.74 88.06 C 118.68 87.29 118.58 85.76 118.53 84.99 C 116.93 85.75 115.34 86.50 113.82 87.40 C 105.00 88.09 96.16 85.95 87.39 87.57 C 87.12 87.09 86.58 86.12 86.31 85.63 C 82.34 86.18 78.59 87.62 75.01 89.37 C 72.36 89.09 69.51 88.74 67.12 90.20 C 63.04 92.50 58.68 94.19 54.35 95.94 C 57.64 96.00 60.79 95.02 63.85 93.94 L 63.35 96.12 C 73.14 93.76 83.10 92.26 92.93 90.10 C 91.97 91.14 91.01 92.18 90.07 93.24 C 93.89 92.32 97.74 91.48 101.49 90.30 C 101.93 90.90 102.82 92.11 103.26 92.71 C 102.33 92.55 100.49 92.25 99.56 92.09 C 102.27 93.07 104.92 94.21 107.70 94.97 C 107.05 93.24 106.20 91.61 105.16 90.08 C 110.82 91.06 115.58 94.78 121.43 95.05 C 113.30 95.22 105.16 95.03 97.02 95.05 C 77.99 96.11 59.03 99.99 41.29 106.99 C 39.31 108.76 36.98 110.02 34.64 111.23 C 32.19 111.92 29.81 112.85 27.49 113.89 C 27.56 115.33 28.38 117.00 27.28 118.24 C 24.75 121.87 21.39 124.79 18.28 127.90 C 18.89 128.97 19.48 130.04 20.06 131.12 C 16.66 128.04 14.18 124.13 11.18 120.70 C 10.76 121.05 9.93 121.75 9.51 122.10 C 7.77 119.94 6.01 117.79 4.23 115.65 C 4.93 115.16 5.62 114.67 6.32 114.17 C 4.12 111.66 1.96 109.10 0.00 106.39 L 0.00 105.74 C 3.05 104.11 6.03 102.34 9.18 100.91 C 14.92 98.66 19.75 93.55 26.40 94.39 C 28.41 92.01 30.27 89.48 31.70 86.70 C 33.83 86.62 34.80 85.68 33.55 83.79 C 42.82 77.83 49.46 68.89 57.08 61.12 C 60.36 57.64 65.05 55.16 66.26 50.16 C 73.04 45.66 77.14 38.44 82.87 32.85 C 85.33 30.43 86.65 26.63 90.43 25.97 C 92.15 21.13 95.96 17.79 100.00 14.87 C 93.36 15.53 86.71 15.19 80.09 14.51 C 74.03 14.76 67.53 17.38 61.77 14.31 C 61.50 14.68 60.96 15.41 60.69 15.77 C 63.39 16.35 66.12 16.91 68.63 18.13 C 67.09 18.48 65.49 19.01 63.92 18.53 C 58.69 17.28 53.41 15.40 47.95 16.10 C 47.68 18.04 48.73 19.84 49.10 21.70 C 46.78 19.48 45.34 16.54 46.28 13.30 C 45.67 12.85 45.06 12.39 44.45 11.93 C 45.05 11.59 46.25 10.89 46.85 10.54 C 47.00 10.02 47.31 9.00 47.47 8.48 C 51.28 8.00 55.18 7.16 59.00 8.06 C 63.15 8.93 67.30 9.96 71.56 10.13 C 64.90 7.81 57.87 6.85 50.90 6.00 C 55.11 4.10 59.69 5.22 63.99 6.07 C 77.99 8.98 92.52 9.15 106.59 6.66 C 109.99 6.15 111.83 2.73 113.33 0.00 Z" />
<path fill="#e5b627" opacity="1.00" d=" M 103.84 34.12 C 104.18 34.40 104.86 34.95 105.20 35.23 C 104.59 36.26 103.98 37.29 103.38 38.33 C 102.70 40.71 101.30 42.84 99.28 44.28 C 99.92 42.72 100.68 41.21 101.27 39.63 C 99.60 41.02 98.11 42.61 96.55 44.12 C 94.99 38.59 103.92 39.31 103.84 34.12 Z" />
<path fill="#e5b627" opacity="1.00" d=" M 91.98 49.89 C 92.84 47.47 94.04 45.12 95.90 43.31 C 96.24 46.29 94.38 48.48 91.98 49.89 Z" />
<path fill="#e5b627" opacity="1.00" d=" M 89.67 46.12 C 89.71 46.40 89.77 46.96 89.81 47.24 C 88.79 50.08 87.70 53.11 84.85 54.62 C 86.11 51.60 87.33 48.50 89.67 46.12 Z" />
<path fill="#e5b627" opacity="1.00" d=" M 109.30 79.14 C 112.05 78.73 114.86 78.96 117.63 79.11 C 115.85 81.98 112.08 80.62 109.32 80.87 C 109.32 80.44 109.31 79.57 109.30 79.14 Z" />
<path fill="#e5b627" opacity="1.00" d=" M 433.67 87.47 C 435.88 88.00 437.88 89.08 439.48 90.70 C 440.11 90.72 441.37 90.74 442.00 90.76 L 442.00 95.88 C 438.87 96.97 435.49 97.46 432.66 99.28 C 432.64 101.37 432.12 103.39 431.07 105.20 C 431.14 104.19 431.28 102.17 431.35 101.16 C 415.68 109.26 400.80 119.21 383.89 124.61 C 378.39 126.53 372.50 126.39 366.86 127.60 C 360.87 130.82 353.91 131.85 347.23 132.66 C 347.38 133.12 347.67 134.05 347.82 134.52 C 342.86 135.25 337.85 135.01 332.89 134.44 C 332.02 135.29 331.16 136.15 330.29 137.00 L 327.33 137.00 C 324.62 135.94 322.04 134.34 319.07 134.14 C 313.86 133.80 308.75 132.59 303.52 132.40 C 299.85 132.31 296.45 130.46 292.77 130.74 C 290.37 129.46 287.97 128.19 285.54 126.98 C 285.48 127.49 285.38 128.50 285.32 129.01 C 280.47 126.74 274.17 126.65 270.68 122.13 C 274.57 123.11 277.80 125.64 281.62 126.83 C 275.71 122.42 269.46 118.16 262.29 116.14 C 262.20 116.43 262.02 117.03 261.93 117.32 C 256.46 116.27 251.06 114.89 245.60 113.80 C 248.25 113.40 250.89 112.95 253.54 112.48 C 249.94 111.61 246.19 111.29 242.74 109.86 C 244.33 110.03 245.90 110.29 247.48 110.57 C 247.83 110.13 248.54 109.24 248.90 108.79 C 250.15 109.09 251.40 109.39 252.66 109.70 C 253.10 110.69 253.54 111.69 253.98 112.68 C 254.53 112.68 255.64 112.67 256.19 112.67 C 262.11 115.26 268.30 118.04 274.90 117.87 C 280.86 118.63 286.32 121.87 292.45 121.65 C 293.97 122.48 295.47 123.39 297.12 123.95 C 305.11 122.71 312.79 126.16 320.75 126.46 C 320.73 127.11 320.69 128.41 320.67 129.06 C 319.99 128.44 318.61 127.21 317.92 126.59 C 317.45 127.11 316.52 128.15 316.05 128.67 C 313.79 128.24 311.51 127.32 309.19 127.90 C 311.84 128.58 314.73 128.66 317.13 130.15 C 308.05 131.82 299.41 127.47 290.41 127.49 C 298.98 130.20 307.85 132.55 316.92 132.10 C 320.50 131.70 323.52 134.66 327.12 133.82 C 332.22 132.71 338.14 134.21 342.45 130.68 C 338.19 130.21 333.66 130.34 330.01 132.87 C 326.69 132.25 323.08 131.53 321.65 128.04 C 323.61 127.33 325.56 126.57 327.46 125.71 C 326.28 124.93 325.14 124.17 323.97 123.39 C 325.67 123.48 327.39 123.51 329.08 123.82 C 328.83 125.88 328.26 127.88 327.88 129.92 C 329.24 129.16 330.53 128.27 331.83 127.40 C 335.28 128.25 338.71 127.23 342.08 126.49 C 363.91 123.25 384.86 115.11 403.83 103.94 C 407.21 102.14 410.08 99.17 413.97 98.47 C 420.03 97.68 423.31 91.84 428.48 89.30 C 430.20 88.77 432.03 89.34 433.77 89.48 C 433.75 88.98 433.70 87.98 433.67 87.47 M 255.47 113.73 C 255.92 117.11 258.36 112.16 255.47 113.73 Z" />
<path fill="#e5b627" opacity="1.00" d=" M 114.95 90.90 C 122.71 91.30 130.42 92.36 138.08 93.54 C 143.10 93.43 148.14 93.79 153.10 94.45 C 160.59 97.26 168.52 98.52 176.38 99.85 C 175.14 100.09 173.90 100.31 172.65 100.53 C 173.04 101.13 173.83 102.33 174.22 102.93 C 173.40 103.32 172.58 103.70 171.75 104.09 C 169.44 100.64 164.57 102.42 161.09 101.58 C 161.71 101.07 162.94 100.05 163.56 99.53 C 156.30 99.12 148.24 100.21 141.75 96.28 C 146.62 96.59 151.52 97.06 156.39 96.60 C 155.13 95.78 153.80 94.79 152.20 95.14 C 148.43 95.45 144.63 95.54 140.90 94.88 C 137.00 100.30 130.04 93.09 125.42 96.63 C 123.92 95.35 122.38 94.12 120.84 92.88 C 118.84 92.32 116.89 91.64 114.95 90.90 Z" />
<path fill="#e5b627" opacity="1.00" d=" M 206.28 98.99 C 207.87 97.64 210.95 99.26 212.65 99.63 C 210.69 100.08 207.60 100.98 206.28 98.99 Z" />
<path fill="#e5b627" opacity="1.00" d=" M 177.85 104.10 C 178.64 103.20 179.41 102.28 180.22 101.39 C 181.96 103.19 184.58 104.36 187.07 103.44 C 189.72 102.55 192.41 103.39 194.87 104.44 C 189.90 108.05 183.30 104.98 177.85 104.10 Z" />
<path fill="#e5b627" opacity="1.00" d=" M 218.59 105.85 C 219.62 105.19 220.65 104.50 221.75 103.94 C 225.04 103.58 227.15 106.41 229.88 107.61 C 231.83 105.49 234.86 106.31 237.28 105.23 C 238.76 106.27 240.23 107.32 241.61 108.51 C 240.54 108.50 238.40 108.47 237.33 108.46 L 237.84 109.74 C 231.19 109.53 225.22 106.03 218.59 105.85 Z" />
<path fill="#e5b627" opacity="1.00" d=" M 192.45 107.61 C 195.51 106.97 198.82 107.01 201.41 105.00 C 201.47 105.46 201.59 106.40 201.65 106.86 C 202.32 106.89 203.66 106.94 204.33 106.96 C 200.78 109.49 196.35 108.78 192.45 107.61 Z" />
<path fill="#e5b627" opacity="1.00" d=" M 206.99 108.71 C 210.33 109.27 213.60 110.31 216.65 111.78 C 213.27 111.52 209.48 111.33 206.99 108.71 Z" />
<path fill="#e5b627" opacity="1.00" d=" M 226.10 114.56 C 228.82 112.19 231.50 114.64 234.03 115.91 C 239.16 114.93 244.10 117.54 249.23 117.62 C 250.07 118.34 250.91 119.07 251.75 119.80 C 252.57 119.56 254.22 119.07 255.04 118.83 C 256.09 119.31 257.13 119.79 258.19 120.27 C 257.90 121.45 257.62 122.62 257.34 123.80 C 252.08 120.02 245.44 119.54 239.42 117.65 C 238.26 117.20 237.08 117.70 235.96 117.97 C 232.64 116.90 229.52 115.28 226.10 114.56 Z" />
</g>
<g id="#000000fe">
<path fill="#000000" opacity="1.00" d=" M 105.34 46.46 C 111.55 43.61 119.70 44.56 124.30 49.92 C 124.26 48.29 124.24 46.66 124.21 45.03 C 124.97 45.02 126.49 45.00 127.25 44.99 C 127.26 54.80 127.23 64.61 127.27 74.42 C 126.27 74.47 125.27 74.52 124.27 74.57 C 124.26 73.05 124.25 71.53 124.25 70.01 C 118.52 76.30 107.29 77.01 101.46 70.55 C 95.68 63.57 96.79 50.77 105.34 46.46 M 108.42 48.57 C 99.32 51.72 98.58 66.62 107.12 70.86 C 111.04 72.72 116.08 72.37 119.59 69.75 C 124.95 65.73 125.51 57.34 121.80 52.04 C 118.80 47.97 112.99 47.16 108.42 48.57 Z" />
<path fill="#000000" opacity="1.00" d=" M 135.65 49.90 C 138.84 46.31 143.56 44.90 148.24 44.81 C 148.25 45.55 148.26 47.02 148.26 47.76 C 144.35 48.05 140.02 49.26 138.03 52.98 C 134.40 59.46 136.17 67.17 135.74 74.24 C 134.66 74.26 133.59 74.28 132.51 74.31 C 132.48 64.69 132.50 55.07 132.50 45.45 C 133.34 45.49 135.01 45.58 135.85 45.62 C 135.80 46.69 135.70 48.83 135.65 49.90 Z" />
<path fill="#000000" opacity="1.00" d=" M 155.95 46.93 C 162.15 43.48 170.67 44.38 175.60 49.66 C 175.53 48.14 175.47 46.62 175.41 45.10 C 176.53 45.05 177.64 45.01 178.76 44.97 C 178.61 54.78 179.04 64.60 178.57 74.39 C 177.79 74.46 176.25 74.59 175.47 74.66 C 175.50 73.12 175.54 71.59 175.58 70.06 C 169.45 77.02 156.36 76.94 151.51 68.57 C 147.72 61.68 148.78 51.25 155.95 46.93 M 161.11 48.21 C 152.77 49.89 150.50 60.93 154.63 67.42 C 158.13 72.88 166.61 73.45 171.42 69.45 C 176.33 65.40 176.78 57.58 173.50 52.39 C 170.89 48.37 165.53 47.41 161.11 48.21 Z" />
<path fill="#000000" opacity="1.00" d=" M 215.43 47.60 C 221.61 43.37 230.93 44.05 236.04 49.69 C 236.02 48.13 236.00 46.56 235.98 45.00 C 236.80 45.00 238.43 45.00 239.25 45.00 C 239.25 54.83 239.25 64.66 239.25 74.50 C 238.43 74.50 236.80 74.50 235.99 74.51 C 236.00 73.39 236.02 71.16 236.03 70.04 C 229.70 77.43 215.66 76.77 211.41 67.51 C 208.64 61.01 209.37 52.05 215.43 47.60 M 220.39 48.56 C 213.03 50.98 211.34 60.86 214.88 67.01 C 218.13 72.73 226.65 73.49 231.64 69.71 C 236.65 65.79 237.35 58.01 234.20 52.73 C 231.42 48.16 225.20 47.07 220.39 48.56 Z" />
<path fill="#000000" opacity="1.00" d=" M 183.99 45.75 C 191.94 45.76 199.90 45.70 207.85 45.79 C 207.45 47.26 207.12 48.82 206.03 49.95 C 199.71 57.06 193.23 64.02 187.02 71.22 C 194.13 71.43 201.27 70.91 208.37 71.46 C 208.45 72.16 208.62 73.55 208.70 74.24 C 199.76 74.24 190.82 74.30 181.88 74.20 C 182.19 70.47 185.41 68.24 187.64 65.61 C 192.66 59.99 197.79 54.46 202.74 48.78 C 196.50 48.74 190.26 48.75 184.03 48.77 C 184.02 48.01 184.00 46.51 183.99 45.75 Z" />
<path fill="#000000" opacity="1.00" d=" M 244.48 68.31 C 245.10 68.27 246.34 68.20 246.96 68.16 C 247.06 78.61 246.97 89.06 247.00 99.50 C 246.36 99.50 245.09 99.48 244.45 99.47 C 244.49 98.62 244.57 96.93 244.62 96.08 C 240.16 100.92 231.68 101.66 226.95 96.86 C 222.01 91.41 222.80 81.15 229.45 77.39 C 234.37 74.78 240.65 75.93 244.64 79.73 C 244.45 75.92 244.48 72.11 244.48 68.31 M 231.23 79.36 C 224.06 82.99 225.02 96.11 233.40 97.48 C 239.89 99.07 245.90 92.35 244.30 86.04 C 243.87 79.89 236.41 76.69 231.23 79.36 Z" />
<path fill="#000000" opacity="1.00" d=" M 297.55 68.57 C 300.12 65.30 301.59 73.72 298.05 73.11 C 296.96 71.90 296.93 69.99 297.55 68.57 Z" />
<path fill="#000000" opacity="1.00" d=" M 277.91 77.94 C 281.60 75.62 286.52 75.80 290.37 77.65 C 293.05 78.90 293.59 82.04 294.04 84.65 C 293.40 84.69 292.12 84.77 291.48 84.80 C 291.33 78.72 283.53 77.18 279.36 80.28 C 277.57 81.47 277.46 84.43 279.49 85.43 C 283.48 87.31 288.38 86.52 292.05 89.17 C 295.18 91.55 294.50 97.10 291.01 98.80 C 287.28 100.63 282.72 100.55 278.88 99.15 C 275.39 97.74 274.38 93.87 274.03 90.48 C 278.03 89.90 276.73 95.00 279.43 96.41 C 282.49 98.06 286.44 98.08 289.55 96.54 C 291.50 95.49 292.05 92.26 289.92 91.10 C 286.15 88.78 281.22 89.85 277.48 87.45 C 274.15 85.35 274.67 79.88 277.91 77.94 Z" />
<path fill="#000000" opacity="1.00" d=" M 307.70 77.76 C 312.53 75.28 318.72 76.09 322.66 79.87 C 322.60 79.16 322.50 77.72 322.45 77.01 C 323.09 77.01 324.36 77.00 325.00 77.00 C 324.94 84.35 325.11 91.70 324.95 99.05 C 325.04 102.36 323.10 105.70 319.89 106.80 C 315.76 108.27 310.84 108.26 306.96 106.09 C 304.47 104.71 303.95 101.73 303.43 99.21 C 307.13 99.05 306.85 104.07 310.14 104.77 C 313.26 105.55 316.94 105.70 319.77 103.94 C 322.44 102.34 322.15 98.81 322.85 96.19 C 318.75 99.31 313.17 100.70 308.31 98.54 C 300.39 94.95 300.21 81.91 307.70 77.76 M 310.22 79.44 C 303.17 82.17 303.09 94.05 310.29 96.61 C 315.66 98.77 322.42 94.90 322.37 88.89 C 323.39 82.40 316.34 76.52 310.22 79.44 Z" />
<path fill="#000000" opacity="1.00" d=" M 253.84 98.10 C 247.11 93.13 248.17 80.62 256.06 77.32 C 261.13 75.45 267.93 76.14 271.20 80.91 C 273.01 83.29 272.93 86.41 273.16 89.25 C 266.07 89.29 258.99 89.16 251.91 89.33 C 252.69 91.84 253.20 94.89 255.69 96.32 C 260.50 99.01 267.66 97.76 269.91 92.29 C 270.85 92.35 271.80 92.41 272.74 92.47 C 270.22 100.08 260.13 102.17 253.84 98.10 M 251.90 86.67 C 258.04 86.82 264.18 86.73 270.33 86.75 C 269.89 81.21 264.15 77.50 258.89 79.02 C 255.04 79.65 252.85 83.19 251.90 86.67 Z" />
<path fill="#000000" opacity="1.00" d=" M 297.21 76.59 C 297.91 76.56 299.31 76.50 300.01 76.47 C 299.98 84.23 300.03 91.99 299.97 99.75 C 298.10 99.85 296.77 99.13 297.24 97.04 C 297.18 90.23 297.32 83.41 297.21 76.59 Z" />
<path fill="#000000" opacity="1.00" d=" M 328.50 77.00 C 329.18 77.00 330.56 77.00 331.24 77.00 C 331.23 77.52 331.21 78.57 331.20 79.09 C 336.16 75.27 345.63 74.89 348.43 81.45 C 349.20 87.42 348.56 93.51 348.74 99.53 C 348.12 99.52 346.88 99.52 346.26 99.51 C 346.08 94.03 346.56 88.52 346.04 83.06 C 344.10 76.40 332.68 77.82 331.52 84.41 C 330.89 89.41 331.40 94.47 331.26 99.49 C 330.57 99.49 329.19 99.50 328.50 99.50 C 328.49 92.00 328.49 84.50 328.50 77.00 Z" />
</g>
</svg>
