<?xml version="1.0" standalone="no"?>
<!DOCTYPE svg PUBLIC "-//W3C//DTD SVG 1.1//EN" "http://www.w3.org/Graphics/SVG/1.1/DTD/svg11.dtd" >
<svg xmlns="http://www.w3.org/2000/svg">
<metadata>
Created by FontPrep 20130207 at Thu Jul 28 00:18:38 2016
 By Nico Watine
No Rights Reserved.
</metadata>
<defs>
<font id="0c372db6957edbb62a410a18915ac9ce" horiz-adv-x='1024' >
  <font-face 
    font-family="Aileron-Heavy"
    font-weight="800"
    font-stretch="normal"
    units-per-em="2048"
    panose-1="2 0 9 3 0 0 0 0 0 0"
    ascent="1577"
    descent="-471"
    x-height="1083"
    cap-height="1413"
    bbox="-84 -446 2064 1638"
    underline-thickness="102"
    underline-position="-102"
    unicode-range="U+0020-007E"
  />
<missing-glyph horiz-adv-x="1024" 
 />
    <glyph glyph-name=".notdef" horiz-adv-x="1024" 
 />
    <glyph glyph-name=".null" horiz-adv-x="0" 
 />
    <glyph glyph-name="nonmarkingreturn" horiz-adv-x="681" 
 />
    <glyph glyph-name="space" unicode=" " horiz-adv-x="380" 
 />
    <glyph glyph-name="exclam" unicode="!" horiz-adv-x="555" 
d="M275 311q75 0 124 -47t49 -123t-48 -123q-50 -47 -125 -47t-121 47t-48 123q0 76 47 123t122 47zM403 416h-251l-25 997h301z" />
    <glyph glyph-name="quotedbl" unicode="&#x22;" horiz-adv-x="802" 
d="M698 924h-217l-28 581h276zM336 924h-217l-31 581h277z" />
    <glyph glyph-name="numbersign" unicode="#" 
d="M770 817h-180l-47 -219h180zM1108 598v-176h-236l-90 -422h-186l90 422h-180l-90 -422h-187l90 422h-174v176h211l47 219h-196v176h233l90 420h187l-90 -420h180l90 420h186l-90 -420h176v-176h-213l-47 -219h199z" />
    <glyph glyph-name="dollar" unicode="$" 
d="M910 356q0 128 -150 183v-338q150 27 150 155zM446 1051q0 -66 31 -103t98 -65v327q-129 -34 -129 -159zM1221 384q0 -174 -125 -280t-336 -129v-159h-185v159q-217 18 -337 125q-127 106 -146 303h307q29 -158 176 -196v375q-217 74 -321 172t-104 271t120 281t305 130
v161h185v-159q206 -20 320 -135t134 -293h-309q-23 158 -145 196v-358q246 -80 354 -184q107 -107 107 -280z" />
    <glyph glyph-name="percent" unicode="%" horiz-adv-x="1581" 
d="M1190 494q-113 0 -113 -182t113 -181q113 -1 113 181t-113 182zM1511 313q0 -162 -85 -252q-86 -90 -236 -90t-236 91t-86 252t86 250t237 89t234 -90q86 -88 86 -250zM391 1280q-113 0 -113 -181t114 -181q112 0 112 181t-113 181zM457 0h-234l916 1413h233zM390 1440
q151 0 237 -89t86 -250t-86 -252t-237 -91q-152 0 -236 90t-84 252t86 250q83 90 234 90z" />
    <glyph glyph-name="ampersand" unicode="&#x26;" horiz-adv-x="1392" 
d="M438 403q0 -106 62 -149q58 -45 168 -45t202 16v367h-82q-82 0 -108 -2q-242 -15 -242 -187zM1382 842v-250h-190v-567q-244 -53 -516 -54q-575 0 -576 391q0 145 93 240q86 92 245 121q-118 35 -188 121t-70 196q0 190 144 295q139 106 395 107q131 0 215 -21v-233
q-102 16 -209 16q-207 0 -207 -178q0 -86 48 -133t130 -49q25 -2 117 -2h57v176h322v-176h190z" />
    <glyph glyph-name="quotesingle" unicode="'" horiz-adv-x="428" 
d="M313 924h-217l-28 581h276z" />
    <glyph glyph-name="parenleft" unicode="(" horiz-adv-x="780" 
d="M432 717q0 -481 270 -881h-165q-303 342 -303 880t303 881h165q-270 -399 -270 -880z" />
    <glyph glyph-name="parenright" unicode=")" horiz-adv-x="776" 
d="M539 717q0 -532 -301 -881h-166q270 398 270 880t-270 881h166q301 -348 301 -880z" />
    <glyph glyph-name="asterisk" unicode="*" horiz-adv-x="1255" 
d="M707 659l268 117l63 -201l-286 -65l211 -244l-170 -123l-166 271l-164 -271l-170 123l211 244l-287 65l64 201l268 -117l-27 314h211z" />
    <glyph glyph-name="plus" unicode="+" 
d="M1110 567h-360v-407h-185v407h-360v164h360v408h185v-408h360v-164z" />
    <glyph glyph-name="comma" unicode="," horiz-adv-x="522" 
d="M412 315v-20l-213 -547h-254l161 567h306z" />
    <glyph glyph-name="hyphen" unicode="-" horiz-adv-x="622" 
d="M557 492h-491v176h491v-176z" />
    <glyph glyph-name="period" unicode="." horiz-adv-x="522" 
d="M266 344q82 0 135 -51q51 -55 51 -136t-52 -133t-134 -52t-134 52t-52 134t52 134t134 52z" />
    <glyph glyph-name="slash" unicode="/" horiz-adv-x="686" 
d="M182 -61h-192l514 1536h192z" />
    <glyph glyph-name="zero" unicode="0" 
d="M657 209q117 0 172 118t55 381q0 264 -54 380q-56 116 -173 116t-172 -117t-55 -379t55 -381q55 -118 172 -118zM657 1442q565 0 565 -735t-565 -736t-565 735t565 736z" />
    <glyph glyph-name="one" unicode="1" 
d="M989 1413v-1413h-321v1077l-420 -225v293l338 196q127 72 254 72h149z" />
    <glyph glyph-name="two" unicode="2" 
d="M1180 252v-252h-1059v145l461 445q154 147 213 237q59 89 59 183t-47 146t-135 52q-180 0 -203 -239l-2 -21h-322l2 21q23 231 164 354t383 123t371 -111q127 -115 127 -303q0 -129 -74 -246q-66 -111 -272 -311l-230 -223h564z" />
    <glyph glyph-name="three" unicode="3" 
d="M655 1204q-174 0 -196 -225h-320q21 209 160 336t381 127t368 -106t126 -267q-1 -258 -265 -321q297 -63 297 -334q0 -201 -153 -322q-158 -121 -409 -121q-252 0 -400 117t-168 332l-2 20h321q11 -107 82 -174q68 -57 165 -57t163 53q63 55 63 141q0 199 -260 207h-51
v215l51 2q109 6 166 62q62 55 62 138t-50 130t-131 47z" />
    <glyph glyph-name="four" unicode="4" 
d="M748 578v485q-53 -92 -86 -139l-246 -346h332zM1243 326h-174v-326h-321v326h-672v174l647 913h346v-835h174v-252z" />
    <glyph glyph-name="five" unicode="5" 
d="M739 954q219 0 344 -128t125 -358t-162 -364q-162 -133 -387 -133q-496 0 -540 420l-2 21h321l2 -21q29 -182 201 -182q109 0 170 70q59 73 59 185t-58 182t-165 71q-150 0 -209 -146h-297l103 842h907v-250h-643l-51 -356l63 94q90 53 219 53z" />
    <glyph glyph-name="six" unicode="6" 
d="M658 209q99 0 161 70q57 73 57 183t-56 180q-58 70 -156 69q-98 0 -158 -67q-62 -66 -62 -182t60 -183q55 -70 154 -70zM752 948q223 0 343 -127t119 -329q0 -242 -160 -381t-390 -140q-281 0 -420 170q-140 170 -140 535q0 366 164 566t432 200q221 0 350 -109t150 -313
h-323l-5 20q-47 164 -190 164q-236 0 -250 -461l68 127q96 78 252 78z" />
    <glyph glyph-name="seven" unicode="7" 
d="M1225 1413v-174l-668 -1239h-350l637 1163h-731v250h1112z" />
    <glyph glyph-name="eight" unicode="8" 
d="M657 207q221 0 222 203q0 96 -58 155q-61 57 -165 57t-161 -58q-59 -58 -59 -154t60 -148q55 -55 161 -55zM674 1204q-78 0 -129 -45q-47 -51 -47 -131t46 -126t126 -46t131 47q49 47 49 126t-47 130q-51 45 -129 45zM168 1047q0 179 136 287t373 108t370 -109t133 -286
q0 -221 -236 -297q115 -39 192 -128t76 -223q0 -219 -154 -324t-410 -105q-255 0 -401 104t-147 325q0 131 77 220t198 131q-207 72 -207 297z" />
    <glyph glyph-name="nine" unicode="9" 
d="M648 702q100 0 159 68q61 66 61 178t-57 187q-61 69 -159 69t-156 -70t-58 -182t58 -178q52 -72 152 -72zM651 1442q279 0 418 -170t139 -537t-160 -565t-436 -199q-225 0 -351 108t-144 296l-2 20h323l4 -20q33 -166 191 -166q236 0 250 463l-70 -129q-100 -78 -250 -78
q-223 0 -343 127t-120 330q0 242 160 381q162 139 391 139z" />
    <glyph glyph-name="colon" unicode=":" horiz-adv-x="522" 
d="M266 344q82 0 135 -51q51 -55 51 -136t-52 -133t-134 -52t-134 52t-52 134t52 134t134 52zM266 1120q78 0 135 -51q51 -57 51 -135t-51 -135q-57 -51 -135 -51t-135 51q-51 57 -51 135t51 135q57 51 135 51z" />
    <glyph glyph-name="semicolon" unicode=";" horiz-adv-x="522" 
d="M412 322v-37l-213 -537h-254l161 574h306zM266 1120q78 0 135 -51q51 -57 51 -135t-51 -135q-57 -51 -135 -51t-135 51q-51 57 -51 135t51 135q57 51 135 51z" />
    <glyph glyph-name="less" unicode="&#x3c;" 
d="M1147 823l-727 -278l727 -281v-217l-930 375v244l930 374v-217z" />
    <glyph glyph-name="equal" unicode="=" 
d="M1141 362h-967v164h967v-164zM1141 772h-967v164h967v-164z" />
    <glyph glyph-name="greater" unicode="&#x3e;" 
d="M1071 666v-244l-928 -375v215l725 281l-725 278v219z" />
    <glyph glyph-name="question" unicode="?" horiz-adv-x="1161" 
d="M566 311q75 0 124 -47t49 -123t-49 -123t-124 -47t-122 47t-47 123t47 123t122 47zM584 1442q232 0 359 -104q128 -104 128 -285q0 -117 -49 -201q-48 -84 -150 -172t-133 -136t-41 -128h-268q2 109 37 180q29 68 104 152q94 100 128 160t34 120q0 176 -167 176
t-179 -223h-324q5 215 147 338t374 123z" />
    <glyph glyph-name="at" unicode="@" horiz-adv-x="1865" 
d="M881 369q94 0 127 141l28 129q14 67 -5 103t-66 36q-76 0 -121 -78q-49 -74 -49 -188q0 -143 86 -143zM1290 438q0 -119 82 -119q88 0 144 99q59 94 59 276q0 256 -154 404q-156 143 -413 143q-176 0 -344 -82q-162 -86 -267 -252q-104 -168 -104 -385q0 -284 161 -444
q162 -160 444 -160t474 141l68 -155q-256 -164 -563 -164q-143 0 -281 46t-244 130q-116 88 -186 241t-70 353q0 395 266 653q268 256 637 256t570 -207q205 -204 205 -498t-134 -431q-130 -139 -348 -139t-274 190l-57 -119q-82 -68 -195 -68t-193 80q-79 81 -79 279
t112 346q117 147 291 147q117 0 162 -57l31 -111l40 132h273l-82 -338q-31 -137 -31 -187z" />
    <glyph glyph-name="A" unicode="A" horiz-adv-x="1413" 
d="M725 1135l-152 -484h301zM954 399h-460l-132 -399h-342l510 1413h398l504 -1413h-349z" />
    <glyph glyph-name="B" unicode="B" horiz-adv-x="1368" 
d="M971 430q0 80 -45 124q-44 44 -104 49t-113 5h-213v-356h225q74 0 92 2q63 2 111 49t47 127zM496 1163v-319h192q51 0 94 6q138 20 138 152t-140 155q-43 6 -98 6h-186zM711 0h-537v1413h539q119 0 182 -8q172 -23 266 -117t94 -239q0 -209 -215 -285q266 -70 267 -340
q0 -182 -116 -288t-280 -128q-63 -8 -200 -8z" />
    <glyph glyph-name="C" unicode="C" horiz-adv-x="1484" 
d="M789 1442q293 0 453 -136t179 -354l2 -20h-321l-4 20q-51 252 -303 252q-160 0 -255 -130q-96 -130 -96 -370t98 -368q98 -127 251 -127q246 0 299 268l4 21h321l-2 -21q-25 -238 -193 -372t-454 -134q-285 0 -473 193q-189 200 -189 540t195 539t488 199z" />
    <glyph glyph-name="D" unicode="D" horiz-adv-x="1513" 
d="M1114 719q0 197 -89 311t-241 127q-70 6 -143 6h-145v-911h143q82 0 143 4q154 16 243 141t89 322zM1452 724q0 -310 -166 -498t-426 -218q-63 -8 -180 -8h-506v1413h508q117 0 180 -8q260 -27 428 -199q162 -172 162 -482z" />
    <glyph glyph-name="E" unicode="E" horiz-adv-x="1282" 
d="M1223 252v-252h-1049v1413h1028v-250h-706v-329h659v-250h-659v-332h727z" />
    <glyph glyph-name="F" unicode="F" horiz-adv-x="1234" 
d="M496 1163v-329h639v-250h-639v-584h-322v1413h1028v-250h-706z" />
    <glyph glyph-name="G" unicode="G" horiz-adv-x="1529" 
d="M834 735h591v-735h-254l-24 223l-64 -147q-113 -104 -335 -105q-293 0 -467 193q-175 194 -175 536t200 542t496 200t451 -135q161 -136 185 -375h-320l-4 20q-53 252 -305 252q-162 0 -263 -130q-102 -130 -102 -372t102 -367q102 -126 259 -126q119 0 207 70
q82 76 108 206h-286v250z" />
    <glyph glyph-name="H" unicode="H" horiz-adv-x="1556" 
d="M1434 1413v-1413h-320v567h-618v-567h-322v1413h322v-594h618v594h320z" />
    <glyph glyph-name="I" unicode="I" horiz-adv-x="618" 
d="M496 0h-322v1413h322v-1413z" />
    <glyph glyph-name="J" unicode="J" horiz-adv-x="1259" 
d="M1151 1413v-819q0 -106 -6 -203q-12 -195 -140 -307t-382 -113q-254 0 -385 127q-127 131 -134 361l-2 67h320l4 -67q8 -131 61 -193q53 -57 150 -57q172 0 188 201q4 61 4 143v860h322z" />
    <glyph glyph-name="K" unicode="K" horiz-adv-x="1454" 
d="M496 0h-322v1413h322v-655l577 655h383l-618 -672l594 -741h-408l-420 561l-108 -121v-440z" />
    <glyph glyph-name="L" unicode="L" horiz-adv-x="1259" 
d="M1223 270v-270h-1049v1413h322v-1143h727z" />
    <glyph glyph-name="M" unicode="M" horiz-adv-x="1861" 
d="M1739 1413v-1413h-322v627q0 276 4 469q-45 -233 -116 -467l-179 -629h-340l-182 629q-74 250 -112 465q4 -193 4 -467v-627h-322v1413h504l285 -1108l284 1108h492z" />
    <glyph glyph-name="N" unicode="N" horiz-adv-x="1587" 
d="M1464 0h-428l-553 1012q12 -180 13 -398v-614h-322v1413h412l569 -1040q-10 205 -10 411v629h319v-1413z" />
    <glyph glyph-name="O" unicode="O" horiz-adv-x="1587" 
d="M1194 707q0 237 -100 367t-278 130t-277 -129q-101 -129 -101 -367t100 -368q100 -131 278 -131q177 0 278 131q100 131 100 367zM106 706q0 340 192 538t518 198q327 0 519 -199q191 -201 191 -537t-192 -536q-192 -199 -520 -199t-515 201q-193 195 -193 534z" />
    <glyph glyph-name="P" unicode="P" horiz-adv-x="1296" 
d="M944 964q0 172 -160 193q-37 4 -112 4h-176v-393h176q75 0 112 4q160 20 160 192zM1280 966q0 -189 -111 -307q-113 -111 -274 -133q-98 -10 -211 -10h-188v-516h-322v1413h510q113 0 211 -10q173 -23 279 -135t106 -302z" />
    <glyph glyph-name="Q" unicode="Q" horiz-adv-x="1591" 
d="M1194 708q0 238 -100 368t-278 130t-278 -130t-100 -368q0 -237 100 -368t278 -131q177 0 278 131q100 131 100 368zM1112 4q-64 0 -136 -16t-159 -17q-330 0 -518 201q-193 195 -193 534q0 338 193 538t517 200t519 -199q190 -203 191 -538q0 -302 -203 -474
q115 -29 233 -129l-157 -204q-86 53 -158 84q-66 20 -129 20z" />
    <glyph glyph-name="R" unicode="R" horiz-adv-x="1363" 
d="M496 791h166q90 0 108 2q193 18 193 183t-181 183q-78 4 -108 4h-178v-372zM623 555h-127v-555h-322v1413h537q111 0 213 -10q172 -23 273 -112t101 -263q0 -268 -280 -348q102 -41 153 -119q50 -84 62 -211q29 -240 104 -350h-350q-53 143 -67 301q-27 240 -185 252
q-27 2 -112 2z" />
    <glyph glyph-name="S" unicode="S" horiz-adv-x="1261" 
d="M654 1204q-182 0 -181 -154q1 -76 65 -124q64 -47 234 -88q231 -55 339 -165q108 -109 108 -293t-158 -296q-151 -113 -399 -113t-406 115t-176 338h323q23 -104 95 -160q74 -55 171 -55t155 43t58 116t-56 124q-58 51 -201 86q-248 61 -368 157t-120 289t152 303
q147 115 383 115t364 -123q133 -121 158 -330h-324q-12 99 -69 157t-147 58z" />
    <glyph glyph-name="T" unicode="T" horiz-adv-x="1284" 
d="M1300 1163h-471v-1163h-319v1163h-471v250h1261v-250z" />
    <glyph glyph-name="U" unicode="U" horiz-adv-x="1452" 
d="M1358 1413v-817q0 -106 -6 -180q-16 -195 -160 -320t-436 -125t-438 124t-160 321q-4 98 -4 180v817h319v-864q0 -76 2 -94q20 -246 281 -246q133 0 198 65q70 59 80 181q4 37 4 94v864h320z" />
    <glyph glyph-name="V" unicode="V" horiz-adv-x="1458" 
d="M967 0h-398l-503 1413h348l358 -1165l365 1165h340z" />
    <glyph glyph-name="W" unicode="W" horiz-adv-x="2048" 
d="M2064 1413l-368 -1413h-426l-213 1145l-228 -1145h-428l-348 1413h344l217 -1163l220 1143h456l213 -1153l232 1173h329z" />
    <glyph glyph-name="X" unicode="X" horiz-adv-x="1421" 
d="M1051 0l-328 510l-305 -510h-383l506 713l-471 700h372l293 -500l314 500h368l-493 -694l501 -719h-374z" />
    <glyph glyph-name="Y" unicode="Y" horiz-adv-x="1316" 
d="M850 0h-320v541l-499 872h362l307 -590l295 590h353l-498 -868v-545z" />
    <glyph glyph-name="Z" unicode="Z" horiz-adv-x="1298" 
d="M1241 252v-252h-1137v244l742 919h-684v250h1069v-248l-733 -913h743z" />
    <glyph glyph-name="bracketleft" unicode="[" horiz-adv-x="786" 
d="M721 1597v-176h-320v-1409h320v-176h-504v1761h504z" />
    <glyph glyph-name="backslash" unicode="\" horiz-adv-x="686" 
d="M696 -61h-192l-514 1536h192z" />
    <glyph glyph-name="bracketright" unicode="]" horiz-adv-x="780" 
d="M563 -164h-502v176h320v1409h-320v176h502v-1761z" />
    <glyph glyph-name="asciicircum" unicode="^" 
d="M905 440l-250 643l-252 -643h-202l350 822h211l350 -822h-207z" />
    <glyph glyph-name="underscore" unicode="_" horiz-adv-x="1024" 
d="M922 -180h-820v176h820v-176z" />
    <glyph glyph-name="grave" unicode="`" horiz-adv-x="614" 
d="M430 1174h-176l-283 249h287z" />
    <glyph glyph-name="a" unicode="a" horiz-adv-x="1173" 
d="M547 193q72 0 129 53q55 55 55 151v80q-150 12 -244 -26q-92 -43 -92 -134q0 -57 39 -92q41 -32 113 -32zM421 -29q-151 0 -253 85t-102 235q0 180 154 278t442 99h69v18q0 45 -4 96t-43 82q-37 35 -109 35q-152 0 -163 -170h-308q4 183 140 287t344 104q428 0 456 -336
q6 -78 7 -176v-332q0 -133 20 -276h-313l-23 160l-49 -117q-115 -72 -265 -72z" />
    <glyph glyph-name="b" unicode="b" horiz-adv-x="1341" 
d="M700 193q114 0 185 92q73 92 73 258t-70 261t-187 95q-116 0 -189 -80q-70 -86 -70 -260v-49q0 -166 74 -240q70 -77 184 -77zM805 1120q223 0 353 -152t130 -418t-150 -422t-370 -157q-166 0 -254 58l-72 114v-143h-321v1505h321v-577l82 121q97 71 281 71z" />
    <glyph glyph-name="c" unicode="c" horiz-adv-x="1173" 
d="M600 1120q232 0 372 -121q138 -121 150 -311h-313q-33 211 -205 211q-106 0 -162 -86q-59 -84 -59 -264t59 -266q55 -90 162 -90q76 0 129 51t72 143h317q-31 -199 -174 -309q-147 -106 -371 -106q-223 0 -373 146q-150 148 -150 418t156 428q158 156 390 156z" />
    <glyph glyph-name="d" unicode="d" horiz-adv-x="1343" 
d="M383 548q1 -165 71 -260t188 -95t185 81q72 80 72 258v52q0 160 -74 239q-77 76 -187 76t-183 -92q-72 -94 -72 -259zM1221 1505v-1505h-322v164l-82 -121q-96 -72 -280 -72q-223 0 -353 153t-131 418q0 265 151 422t369 156q166 0 254 -57l72 -115v557h322z" />
    <glyph glyph-name="e" unicode="e" horiz-adv-x="1204" 
d="M604 899q-182 0 -221 -233h430q-27 233 -209 233zM375 463q23 -270 221 -270q180 0 215 163h317q-43 -186 -185 -285q-141 -99 -363 -99t-374 146q-152 148 -153 412q0 264 156 426q153 164 407 164t392 -163t139 -392q0 -45 -6 -102h-766z" />
    <glyph glyph-name="f" unicode="f" horiz-adv-x="729" 
d="M477 1116v-33h223v-204h-223v-879h-319v879h-117v204h117v29q0 98 2 123q27 309 436 309q63 0 123 -14v-217q-104 18 -166 -10q-62 -25 -72 -97q-4 -37 -4 -90z" />
    <glyph glyph-name="g" unicode="g" horiz-adv-x="1343" 
d="M383 567q1 -166 71 -255t188 -89t185 82q72 80 72 258v21q0 160 -74 239q-77 76 -189 76t-181 -84q-72 -82 -72 -248zM391 -49q17 -160 244 -160q111 0 183 59t76 170q5 111 5 146v29l-82 -121q-100 -72 -264 -72q-225 0 -363 144t-137 409q0 265 150 415t370 150
q166 0 254 -57l72 -115v144h322v-816q0 -172 -2 -210q-10 -256 -166 -385q-163 -127 -421 -127t-394 98q-137 94 -156 278l-2 21h311z" />
    <glyph glyph-name="h" unicode="h" horiz-adv-x="1292" 
d="M1184 616v-616h-322v567q0 78 -4 152q-14 180 -194 180q-102 -2 -162 -98t-60 -295v-506h-321v1516h321v-596l90 131q102 69 262 69t261 -79t119 -222q10 -78 10 -203z" />
    <glyph glyph-name="i" unicode="i" horiz-adv-x="565" 
d="M442 0h-321v1092h321v-1092zM283 1513q78 0 124 -45q46 -44 46 -118t-46 -118t-125 -44t-126 45q-45 45 -45 117t45 120q49 43 127 43z" />
    <glyph glyph-name="j" unicode="j" horiz-adv-x="552" 
d="M436 1092v-1090q0 -35 -4 -133q-12 -147 -106 -223t-295 -76q-61 0 -115 6v223q98 -8 143 13q45 25 51 76t5 110v1094h321zM275 1513q171 -1 171 -163t-171 -162t-171 162t171 163z" />
    <glyph glyph-name="k" unicode="k" horiz-adv-x="1239" 
d="M442 0h-321v1505h321v-893l414 480h381l-473 -504l479 -588h-399l-318 418l-84 -92v-326z" />
    <glyph glyph-name="l" unicode="l" horiz-adv-x="595" 
d="M434 1505v-1132q0 -82 2 -111t30 -41t95 -10v-219q-113 -10 -192 -10q-240 0 -252 202q-4 70 -4 183v1138h321z" />
    <glyph glyph-name="m" unicode="m" horiz-adv-x="1921" 
d="M1812 645v-645h-321v563q0 100 -8 166q-18 170 -172 170q-184 0 -185 -332v-567h-319v563q0 100 -8 166q-23 170 -174 170q-182 0 -183 -332v-567h-321v1092h321v-170l82 135q94 63 230 63t225 -58q88 -58 121 -153l110 148q94 63 240 63t240 -76q92 -79 112 -196
q10 -78 10 -203z" />
    <glyph glyph-name="n" unicode="n" horiz-adv-x="1292" 
d="M1184 616v-616h-322v567q0 78 -4 152q-14 180 -194 180q-100 0 -160 -97t-62 -296v-506h-321v1092h321v-172l90 131q102 69 262 69t261 -79t119 -222q10 -78 10 -203z" />
    <glyph glyph-name="o" unicode="o" horiz-adv-x="1255" 
d="M630 193q116 0 177 92q65 90 65 263t-65 259q-61 92 -177 92t-184 -92q-63 -92 -63 -259t63 -263q68 -92 184 -92zM53 547q0 261 154 417t421 156t422 -156q154 -156 154 -417q0 -260 -155 -416q-154 -160 -421 -160t-421 158t-154 418z" />
    <glyph glyph-name="p" unicode="p" horiz-adv-x="1341" 
d="M700 193q114 0 185 92q73 92 73 258t-70 261t-187 95q-116 0 -189 -80q-70 -86 -70 -260v-49q0 -166 74 -240q70 -77 184 -77zM805 1120q223 0 353 -152t130 -418t-150 -422t-370 -157q-166 0 -254 58l-72 114v-544h-321v1493h321v-164l82 121q97 71 281 71z" />
    <glyph glyph-name="q" unicode="q" horiz-adv-x="1343" 
d="M383 548q1 -165 71 -260t188 -95t185 81q72 80 72 258v52q0 160 -74 239q-77 76 -187 76t-183 -92q-72 -94 -72 -259zM1221 1092v-1493h-322v565l-82 -121q-96 -72 -280 -72q-223 0 -353 153t-131 418q0 265 151 422t369 156q166 0 254 -57l72 -115v144h322z" />
    <glyph glyph-name="r" unicode="r" horiz-adv-x="815" 
d="M723 1120q39 0 82 -8v-260q-195 12 -277 -78q-86 -86 -86 -317v-457h-321v1092h321v-209l82 151q82 86 199 86z" />
    <glyph glyph-name="s" unicode="s" horiz-adv-x="1046" 
d="M84 788q0 148 124 240t326 92t312 -96q113 -92 135 -250h-317q-29 141 -146 141q-49 1 -81 -27q-31 -28 -31 -78t54 -86t212 -76t246 -120q88 -76 88 -232t-129 -239q-131 -86 -340 -86t-342 92t-154 273h317q14 -78 68 -117q52 -41 116 -41t103 27t39 79t-57 91
q-67 39 -217 75t-238 113t-88 225z" />
    <glyph glyph-name="t" unicode="t" horiz-adv-x="774" 
d="M506 879v-459q0 -84 2 -103q6 -80 45 -106q45 -25 164 -16v-205q-111 -16 -199 -17q-174 -1 -248 57t-82 181q-4 74 -4 166v502h-166v204h166v275h322v-275h231v-204h-231z" />
    <glyph glyph-name="u" unicode="u" horiz-adv-x="1286" 
d="M1163 1092v-1092h-319v186l-92 -145q-102 -70 -257 -70t-262 78q-100 82 -120 199q-10 78 -11 203v641h320v-572q0 -84 8 -149q23 -176 197 -176q100 0 158 83t59 230v584h319z" />
    <glyph glyph-name="v" unicode="v" horiz-adv-x="1198" 
d="M1206 1092l-426 -1092h-352l-428 1092h356l252 -844l250 844h348z" />
    <glyph glyph-name="w" unicode="w" horiz-adv-x="1734" 
d="M1745 1092l-346 -1092h-361l-164 793l-165 -793h-363l-346 1092h356l170 -824l158 817h383l166 -819l166 826h346z" />
    <glyph glyph-name="x" unicode="x" horiz-adv-x="1153" 
d="M770 551l379 -551h-375l-201 356l-208 -356h-369l383 553l-369 539h375l197 -342l194 342h369z" />
    <glyph glyph-name="y" unicode="y" horiz-adv-x="1196" 
d="M289 -430q-88 0 -139 8v215q37 -4 90 -4q139 0 194 127l15 35l-449 1141h358l250 -844l248 844h350l-436 -1115q-92 -235 -196 -321t-285 -86z" />
    <glyph glyph-name="z" unicode="z" horiz-adv-x="1044" 
d="M985 207v-207h-922v195l574 682h-541v206h883v-204l-569 -672h575z" />
    <glyph glyph-name="braceleft" unicode="{" horiz-adv-x="815" 
d="M692 1421h-41q-81 0 -109 -17q-28 -16 -28 -68t23 -198t22 -212q0 -168 -174 -205q174 -37 174 -213q0 -66 -22 -212q-23 -146 -23 -198t29 -68q29 -17 108 -18h41v-176h-84q-150 0 -214 55t-64 179q0 60 22 210t23 222q0 119 -168 127v176q168 12 168 127q0 72 -21 194
q-25 176 -24 240q0 123 65 178q66 53 213 53h84v-176z" />
    <glyph glyph-name="bar" unicode="|" horiz-adv-x="608" 
d="M408 -410h-207v2048h207v-2048z" />
    <glyph glyph-name="braceright" unicode="}" horiz-adv-x="815" 
d="M442 502q0 -59 22 -205t21 -227q0 -121 -63 -179q-68 -55 -213 -55h-84v176h39q82 0 110 18t29 64q-1 47 -23 205t-22 209q0 172 172 205q-172 37 -172 213q0 51 23 212q23 160 23 204t-30 62q-29 18 -110 17h-39v176h84q143 0 213 -53q63 -58 63 -160t-21 -248t-22 -204
q0 -115 168 -127v-176q-168 -8 -168 -127z" />
    <glyph glyph-name="asciitilde" unicode="~" 
d="M967 807h176q0 -350 -260 -350q-59 0 -105 16t-164 78q-120 62 -170 61q-94 0 -94 -155h-176q0 350 258 350q74 0 162 -37q8 -6 39 -21t53 -26q133 -72 184 -72t74 36t23 120z" />
  </font>
</defs>
</svg>
